<?xml version="1.0" encoding="utf-8"?>
<!-- Generator: Adobe Illustrator 24.3.0, SVG Export Plug-In . SVG Version: 6.00 Build 0)  -->
<svg version="1.1" id="Layer_1" xmlns="http://www.w3.org/2000/svg" xmlns:xlink="http://www.w3.org/1999/xlink" x="0px" y="0px"
	 viewBox="0 0 512 512" style="enable-background:new 0 0 512 512;" xml:space="preserve">
<g>
	<path d="M455.11,0H56.89C25.5,0,0,25.53,0,56.89v398.22C0,486.5,25.5,512,56.89,512h398.22c31.36,0,56.89-25.5,56.89-56.89V56.89
		C512,25.53,486.47,0,455.11,0z M142.22,184.89c-23.56,0-42.67-19.11-42.67-42.67s19.11-42.67,42.67-42.67
		c23.53,0,42.67,19.11,42.67,42.67S165.75,184.89,142.22,184.89z M256,298.67c-23.56,0-42.67-19.11-42.67-42.67
		s19.11-42.67,42.67-42.67c23.53,0,42.67,19.11,42.67,42.67S279.53,298.67,256,298.67z M369.78,412.44
		c-23.56,0-42.67-19.11-42.67-42.67c0-23.56,19.11-42.67,42.67-42.67c23.53,0,42.67,19.11,42.67,42.67
		C412.44,393.33,393.31,412.44,369.78,412.44z"/>
</g>
</svg>
